<svg id="Capa_1" data-name="Capa 1" xmlns="http://www.w3.org/2000/svg" viewBox="0 0 512 512"><defs><style>.cls-1{fill:#175599;}</style></defs><polygon class="cls-1" points="173.43 245.18 129.81 245.18 234.01 7.22 277.63 7.22 173.43 245.18"/><polygon class="cls-1" points="338.57 245.18 382.19 245.18 277.99 7.22 234.37 7.22 338.57 245.18"/><polygon class="cls-1" points="173.43 266.82 129.81 266.82 234.01 504.78 277.63 504.78 173.43 266.82"/><polygon class="cls-1" points="338.57 266.82 382.19 266.82 277.99 504.78 234.37 504.78 338.57 266.82"/><circle class="cls-1" cx="277.79" cy="256.24" r="27.85"/><path class="cls-1" d="M230.09,256.29a56.15,56.15,0,0,0,56.15,56.15h.41v26.23h-.41a82.38,82.38,0,1,1,0-164.76h.41v26.23h-.41A56.15,56.15,0,0,0,230.09,256.29Z"/></svg>