<svg id="Capa_1" data-name="Capa 1" xmlns="http://www.w3.org/2000/svg" viewBox="0 0 1250 1250"><defs><style>.cls-1,.cls-3{fill:#175599;}.cls-1{stroke:#175599;}.cls-1,.cls-2{stroke-miterlimit:10;stroke-width:4px;}.cls-2{fill:#fbb03b;stroke:#fbb03b;}</style></defs><path class="cls-1" d="M258.45,908.57c-1-16.08-2.24-35.42-2-49.79h-.62c-4.67,13.52-10.37,27.89-17.29,43.8l-24.2,56H200.88l-22.17-54.93c-6.51-16.26-12-31.14-15.87-44.83h-.4c-.41,14.37-1.43,33.71-2.65,51l-3.66,49.45H139.25l9.56-115.33h22.58l23.39,55.78c5.7,14.21,10.37,26.87,13.83,38.85h.61c3.46-11.64,8.34-24.3,14.45-38.85l24.41-55.78h22.57l8.55,115.33H261.91Z"/><path class="cls-1" d="M362.59,959.22l-1.42-10.44h-.61c-5.49,6.51-16.07,12.32-30.1,12.32-19.94,0-30.11-11.8-30.11-23.78,0-20,21.16-31,59.19-30.8v-1.71c0-6.85-2.23-19.17-22.37-19.17a56.1,56.1,0,0,0-25.63,6.16l-4.07-9.92c8.14-4.45,19.93-7.36,32.34-7.36,30.11,0,37.43,17.28,37.43,33.88v31a98.44,98.44,0,0,0,1.63,19.85ZM360,917c-19.53-.34-41.7,2.56-41.7,18.65,0,9.75,7.73,14.37,16.88,14.37,12.82,0,21-6.84,23.8-13.86a13.51,13.51,0,0,0,1-4.79Z"/><path class="cls-1" d="M407.14,902.24c0-9.75-.2-18.14-.81-25.84H422l.61,16.26h.82a29.12,29.12,0,0,1,27.25-18.14,23,23,0,0,1,5.09.51v14.21a31.11,31.11,0,0,0-6.1-.52c-12.62,0-21.57,8-24,19.34a36.42,36.42,0,0,0-.81,7v44.14h-17.7Z"/><path class="cls-1" d="M493.19,914.39h.4c2.44-2.91,5.9-6.5,8.75-9.41l28.88-28.58h21.57l-38,34.06,43.33,48.76H536.31l-34-39.7-9.15,8.56v31.14h-17.7V837.73h17.7Z"/><path class="cls-2" d="M668.33,955.46c-6.51,2.74-19.53,5.47-36.21,5.47-38.65,0-67.74-20.53-67.74-58.35,0-36.1,29.09-60.57,71.6-60.57,17.09,0,27.87,3.08,32.55,5.13l-4.27,12.15c-6.72-2.74-16.28-4.79-27.67-4.79-32.14,0-53.5,17.28-53.5,47.57,0,28.23,19.33,46.37,52.69,46.37,10.78,0,21.76-1.88,28.88-4.79Z"/><path class="cls-2" d="M777.76,917.13c0,30.63-25.22,44-49,44-26.65,0-47.19-16.42-47.19-42.6,0-27.72,21.56-44,48.82-44C758.64,874.52,777.76,891.8,777.76,917.13Zm-78.11.85c0,18.14,12.41,31.83,29.9,31.83,17.09,0,29.91-13.52,29.91-32.17,0-14-8.34-31.83-29.5-31.83S699.65,902.24,699.65,918Z"/><path class="cls-2" d="M801.36,898.82c0-8.56-.2-15.57-.81-22.42h15.86l1,13.69h.41c4.88-7.87,16.27-15.57,32.54-15.57,13.63,0,34.79,6.85,34.79,35.25v49.45h-17.9V911.48c0-13.35-5.9-24.47-22.79-24.47-11.79,0-21,7-24,15.4a18.58,18.58,0,0,0-1.22,7v49.79h-17.9Z"/><path class="cls-2" d="M917.1,959.22V887.87H903.27V876.4H917.1V872c0-21.9,15.26-36.1,42.92-36.1,9.16,0,19.94,2.4,25,5.48L980,852.79c-4.27-2.57-12-4.79-20.75-4.79-18.92,0-24.41,11.12-24.41,24.3v4.1H992v82.82h-17.7V887.87H934.8v71.35Z"/><path class="cls-2" d="M1107.5,876.4c-.41,6-.82,12.67-.82,22.76v48.08c0,19-4.47,30.63-14,37.82-9.56,7.53-23.39,9.92-35.8,9.92-11.8,0-24.82-2.39-32.75-6.84l4.47-11.47c6.51,3.43,16.68,6.51,28.89,6.51,18.31,0,31.73-8,31.73-28.92V945h-.41c-5.49,7.7-16.07,13.86-31.32,13.86-24.41,0-41.91-17.45-41.91-40.38,0-28.07,21.77-44,44.35-44,17.09,0,26.44,7.53,30.72,14.37h.4l.82-12.49ZM1089,909.09a18.35,18.35,0,0,0-1-6.85c-3.25-8.73-12-15.91-25-15.91-17.09,0-29.29,12.15-29.29,31.31,0,16.26,9.76,29.78,29.09,29.78,11,0,21-5.82,24.81-15.41a22.28,22.28,0,0,0,1.43-8Z"/><polygon class="cls-3" points="533.39 512 485 512 600.61 248 649 248 533.39 512"/><polygon class="cls-3" points="716.61 512 765 512 649.39 248 601 248 716.61 512"/><polygon class="cls-3" points="533.39 536 485 536 600.61 800 649 800 533.39 536"/><polygon class="cls-3" points="716.61 536 765 536 649.39 800 601 800 716.61 536"/><circle class="cls-3" cx="649.18" cy="524.27" r="30.89"/><path class="cls-3" d="M596.25,524.32a62.3,62.3,0,0,0,62.3,62.3H659v29.1h-.45a91.4,91.4,0,1,1,0-182.79H659V462h-.45A62.29,62.29,0,0,0,596.25,524.32Z"/></svg>