<svg id="Capa_1" data-name="Capa 1" xmlns="http://www.w3.org/2000/svg" viewBox="0 0 1630 287"><defs><style>.cls-1,.cls-3{fill:#175599;}.cls-1{stroke:#175599;}.cls-1,.cls-2{stroke-miterlimit:10;stroke-width:4px;}.cls-2{fill:#fbb03b;stroke:#fbb03b;}</style></defs><path class="cls-1" d="M211.49,142.88c-1.48-23.45-3.25-51.64-3-72.6h-.89C200.84,90,192.56,111,182.5,134.15l-35.21,81.57H127.76L95.51,135.64C86,111.94,78.05,90.24,72.43,70.28h-.59c-.59,21-2.07,49.15-3.85,74.34l-5.32,72.1H38.11L52,48.58H84.86l34,81.33c8.29,20.7,15.09,39.16,20.12,56.62h.89c5-17,12.13-35.42,21-56.62l35.5-81.33h32.84l12.43,168.14H216.52Z"/><path class="cls-1" d="M363,216.72,360.9,201.5H360c-8,9.48-23.38,18-43.79,18-29,0-43.79-17.21-43.79-34.67,0-29.19,30.77-45.15,86.1-44.91v-2.49c0-10-3.26-27.94-32.55-27.94-13.31,0-27.22,3.49-37.28,9L282.79,104c11.84-6.48,29-10.73,47-10.73,43.79,0,54.44,25.2,54.44,49.4v45.15c0,10.48.59,20.71,2.36,28.94Zm-3.84-61.62c-28.41-.5-60.65,3.74-60.65,27.19,0,14.22,11.24,21,24.55,21,18.64,0,30.48-10,34.62-20.21a19.65,19.65,0,0,0,1.48-7Z"/><path class="cls-1" d="M427.77,133.65c0-14.22-.29-26.45-1.18-37.67h22.78l.89,23.7h1.18a42.36,42.36,0,0,1,39.65-26.45,33,33,0,0,1,7.39.75v20.71a46,46,0,0,0-8.87-.75c-18.35,0-31.36,11.73-34.91,28.19a51.8,51.8,0,0,0-1.19,10.23v64.36H427.77Z"/><path class="cls-1" d="M552.92,151.36h.6c3.55-4.24,8.58-9.48,12.72-13.72l42-41.66h31.36l-55.32,49.64,63,71.1H615.65l-49.41-57.88-13.32,12.48v45.4H527.18V39.6h25.74Z"/><path class="cls-2" d="M807.67,211.23c-9.47,4-28.41,8-52.67,8-56.21,0-98.52-29.94-98.52-85.07,0-52.64,42.31-88.31,104.14-88.31,24.86,0,40.54,4.49,47.34,7.48L801.75,71c-9.76-4-23.67-7-40.24-7-46.75,0-77.81,25.19-77.81,69.35,0,41.16,28.11,67.6,76.63,67.6,15.68,0,31.66-2.74,42-7Z"/><path class="cls-2" d="M966.85,155.35c0,44.66-36.69,64.11-71.31,64.11-38.75,0-68.64-23.94-68.64-62.11,0-40.42,31.36-64.12,71-64.12C939,93.23,966.85,118.43,966.85,155.35ZM853.23,156.6c0,26.44,18,46.4,43.5,46.4,24.85,0,43.49-19.71,43.49-46.9,0-20.46-12.13-46.4-42.9-46.4S853.23,133.65,853.23,156.6Z"/><path class="cls-2" d="M1001.17,128.66c0-12.47-.3-22.7-1.18-32.68h23.07l1.48,20h.59c7.11-11.48,23.67-22.71,47.34-22.71,19.83,0,50.6,10,50.6,51.39v72.1h-26v-69.6c0-19.46-8.58-35.67-33.14-35.67-17.16,0-30.47,10.22-34.91,22.45a27.08,27.08,0,0,0-1.77,10.23v72.59h-26Z"/><path class="cls-2" d="M1169.52,216.72v-104H1149.4V96h20.12V89.49c0-31.93,22.19-52.63,62.43-52.63,13.31,0,29,3.49,36.39,8l-7.4,16.71c-6.21-3.74-17.45-7-30.18-7-27.51,0-35.5,16.21-35.5,35.42v6h83.14V216.72h-25.74v-104h-57.4v104Z"/><path class="cls-2" d="M1446.46,96c-.6,8.73-1.19,18.46-1.19,33.18v70.1c0,27.69-6.51,44.65-20.41,55.13-13.91,11-34,14.47-52.08,14.47-17.16,0-36.09-3.49-47.63-10l6.51-16.71c9.47,5,24.26,9.48,42,9.48,26.63,0,46.16-11.73,46.16-42.16V196h-.59c-8,11.23-23.38,20.21-45.57,20.21-35.5,0-61-25.44-61-58.87,0-40.91,31.66-64.12,64.5-64.12,24.85,0,38.46,11,44.68,21h.59L1423.67,96Zm-26.93,47.65a26.52,26.52,0,0,0-1.48-10c-4.73-12.72-17.45-23.2-36.39-23.2-24.85,0-42.61,17.71-42.61,45.65,0,23.7,14.21,43.41,42.31,43.41,16,0,30.48-8.49,36.1-22.45a32.75,32.75,0,0,0,2.07-11.73Z"/><polygon class="cls-3" points="1503.73 139.54 1481.73 139.54 1534.3 19.5 1556.3 19.5 1503.73 139.54"/><polygon class="cls-3" points="1587.04 139.54 1609.05 139.54 1556.48 19.5 1534.48 19.5 1587.04 139.54"/><polygon class="cls-3" points="1503.73 150.46 1481.73 150.46 1534.3 270.5 1556.3 270.5 1503.73 150.46"/><polygon class="cls-3" points="1587.04 150.46 1609.05 150.46 1556.48 270.5 1534.48 270.5 1587.04 150.46"/><circle class="cls-3" cx="1556.38" cy="145.12" r="14.05"/><path class="cls-3" d="M1532.32,145.15a28.32,28.32,0,0,0,28.32,28.32h.21V186.7h-.21a41.56,41.56,0,0,1,0-83.11h.21v13.24h-.21A28.32,28.32,0,0,0,1532.32,145.15Z"/></svg>